<?xml version="1.0" encoding="UTF-8" standalone="no"?>
<svg xmlns="http://www.w3.org/2000/svg" width="146mm" height="133mm" viewBox="0 0 146 133">
  <title>ARC-210 Template</title>
  <desc>Bottom-up mounting-board reference. Board size 146 x 133 mm. Encoder holes 9 mm; selector holes 16 mm.</desc>
  <rect x="0" y="0" width="146" height="133" fill="none" stroke="#888" stroke-width="0.25"/>
  <g fill="none" stroke="#00a0ff" stroke-width="0.25">
    <circle id="ENC-1" cy="92.364" cx="27.8"  r="4.5"/>
    <circle id="ENC-2" cy="92.364" cx="49.5" r="4.5"/>
    <circle id="ENC-3" cy="92.364" cx="71.75" r="4.5"/>
    <circle id="ENC-4" cy="92.364" cx="96.792" r="4.5"/>
    <circle id="ENC-5" cy="92.364" cx="118.105" r="4.5"/>
    <circle id="ENC-CH" cx="71.75" cy="115.700" r="4.5"/>
    <circle id="ENC-SQL" cx="124.65" cy="30.3" r="4.5"/>
    <circle id="SW-Mode" cx="39.3" cy="115.7" r="9"/>
    <circle id="SW-Band" cx="103.5" cy="115.7" r="9"/>
  </g>
  <g fill="none" stroke="#ffffff" stroke-width="0.18">
    <path d="M26.475 92.364h2.66M27.805 91.034v2.66"/>
    <path d="M48.175 92.364h2.66M49.505 91.034v2.66"/>
    <path d="M70.425 92.364h2.66M71.755 91.034v2.66"/>
    <path d="M95.467 92.364h2.66M96.797 91.034v2.66"/>
    <path d="M116.78 92.364h2.66M118.11 91.034v2.66"/>
    <path d="M70.425 115.700h2.66M71.755 114.370v2.66"/>
    <path d="M123.325 30.3h2.66M124.655 28.97v2.66"/>
    <path d="M37.975 115.7h2.66M39.305 114.37v2.66"/>
    <path d="M102.175 115.7h2.66M103.505 114.37v2.66"/>
  </g>
  <g font-family="sans-serif" font-size="1.8" fill="#ffffff" text-anchor="middle">
    <text x="27.8" y="85.364">ENC1</text>
    <text x="49.5" y="85.364">ENC2</text>
    <text x="71.75" y="85.364">ENC3</text>
    <text x="96.792" y="85.364">ENC4</text>
    <text x="118.105" y="85.364">ENC5</text>
    <text x="71.75" y="108.700">Channel</text>
    <text x="124.65" y="23.3">SQL</text>
    <text x="39.3" y="105">Mode Switch</text>
    <text x="103.5" y="105">Band Switch</text>
  </g>
  <!-- Mounting holes from the marked scan: -->
  <g fill="none" stroke="#ffffff" stroke-width="0.25">
    <rect x="25.7" y="2.75" width="13" height="13" rx="1"/>
    <rect x="53.2" y="2.75" width="13" height="13" rx="1"/>
    <rect x="72.1" y="2.75" width="12" height="13" rx="1"/>
    <rect x="92" y="2.75" width="24" height="13" rx="1"/>
    <rect x="11.5" y="24.75" width="13" height="9.3" rx="1"/>
    <rect x="11.5" y="43.25" width="13" height="9.3" rx="1"/>
    <rect x="11.5" y="63.25" width="13" height="9.3" rx="1"/>
    <rect x="6.75" y="76.63" width="9.5" height="13" rx="1"/>
    <rect x="6.75" y="95.75" width="9.5" height="13" rx="1"/>
    <rect x="109.8" y="45.8" width="13" height="13" rx="1"/>
    <rect x="126" y="45.8" width="13" height="13" rx="1"/>
    <rect x="109.8" y="66" width="13" height="13" rx="1"/>
    <rect x="126" y="66" width="13" height="13" rx="1"/>
    <rect x="126" y="84.75" width="13" height="24" rx="1"/>
  </g>
  <g fill="none" stroke="#ffffff" stroke-width="0.2">
    <path d="M30.87 9.25h2.66M32.2 7.92v2.66"/>
    <path d="M58.37 9.25h2.66M59.7 7.92v2.66"/>
    <path d="M76.77 9.25h2.66M78.1 7.92v2.66"/>
    <path d="M102.67 9.25h2.66M104 7.92v2.66"/>
    <path d="M16.67 29.4h2.66M18 28.07v2.66"/>
    <path d="M16.67 47.9h2.66M18 46.57v2.66"/>
    <path d="M16.67 67.9h2.66M18 66.57v2.66"/>
    <path d="M10.17 83.13h2.66M11.5 81.8v2.66"/>
    <path d="M10.17 102.25h2.66M11.5 100.92v2.66"/>
    <path d="M114.97 52.3h2.66M116.3 50.97v2.66"/>
    <path d="M131.17 52.3h2.66M132.5 50.97v2.66"/>
    <path d="M114.97 72.5h2.66M116.3 71.17v2.66"/>
    <path d="M131.17 72.5h2.66M132.5 71.17v2.66"/>
    <path d="M131.17 96.75h2.66M132.5 95.42v2.66"/>
  </g>
  <g fill="none" stroke="#ff6000" stroke-dasharray="2" stroke-width="0.25">
    <rect x="27" y="19.2" width="80.9" height="59.5" rx="2"/>
  </g>
  <g fill="none" stroke="#ffffff" stroke-width="0.25">
    <circle id="M1" cx="5" cy="14" r="2.6"/>
    <circle id="M3" cx="5" cy="119" r="2.6"/>
    <circle id="M2" cx="140.4" cy="13.9" r="2.6"/>
    <circle id="M3" cx="140.4" cy="119.1" r="2.6"/>
    <circle cx="18.9" cy="8.7" r="1.8"/>
    <circle cx="126.0" cy="8.7" r="1.8"/>
    <circle cx="126.0" cy="124.5" r="1.8"/>
    <circle cx="18.9" cy="124.5" r="1.8"/>
  </g>
  <g font-family="sans-serif" font-size="2.5" fill="#ffffff" text-anchor="middle">
    <text x="5" y="10">M1</text>
    <text x="140.4" y="10">M2</text>
    <text x="5" y="115.0">M3</text>
    <text x="140.4" y="115.0">M4</text>

    <text x="18.9" y="5.5">h1</text>
    <text x="126.0" y="5.5">h2</text>
    <text x="126.0" y="122.0">h3</text>
    <text x="18.9" y="122.0">h4</text>
  </g>
</svg>
